<svg width="32" height="32" viewBox="0 0 32 32" fill="none" xmlns="http://www.w3.org/2000/svg">
  <!-- Lotus flower petals -->
  <path d="M16 8C18 8 20 9 21 11C22 13 21 15 19 16C17 17 15 17 13 16C11 15 10 13 11 11C12 9 14 8 16 8Z" fill="#dc2626"/>
  <path d="M16 8C18 8 20 9 21 11C22 13 21 15 19 16C17 17 15 17 13 16C11 15 10 13 11 11C12 9 14 8 16 8Z" fill="#dc2626" transform="rotate(45 16 16)"/>
  <path d="M16 8C18 8 20 9 21 11C22 13 21 15 19 16C17 17 15 17 13 16C11 15 10 13 11 11C12 9 14 8 16 8Z" fill="#dc2626" transform="rotate(90 16 16)"/>
  <path d="M16 8C18 8 20 9 21 11C22 13 21 15 19 16C17 17 15 17 13 16C11 15 10 13 11 11C12 9 14 8 16 8Z" fill="#dc2626" transform="rotate(135 16 16)"/>
  <path d="M16 8C18 8 20 9 21 11C22 13 21 15 19 16C17 17 15 17 13 16C11 15 10 13 11 11C12 9 14 8 16 8Z" fill="#dc2626" transform="rotate(180 16 16)"/>
  <path d="M16 8C18 8 20 9 21 11C22 13 21 15 19 16C17 17 15 17 13 16C11 15 10 13 11 11C12 9 14 8 16 8Z" fill="#dc2626" transform="rotate(225 16 16)"/>
  <path d="M16 8C18 8 20 9 21 11C22 13 21 15 19 16C17 17 15 17 13 16C11 15 10 13 11 11C12 9 14 8 16 8Z" fill="#dc2626" transform="rotate(270 16 16)"/>
  <path d="M16 8C18 8 20 9 21 11C22 13 21 15 19 16C17 17 15 17 13 16C11 15 10 13 11 11C12 9 14 8 16 8Z" fill="#dc2626" transform="rotate(315 16 16)"/>
  
  <!-- Center of lotus -->
  <circle cx="16" cy="16" r="3" fill="#ffffff"/>
  <circle cx="16" cy="16" r="1.5" fill="#dc2626"/>
</svg> 